<?xml version="1.0" standalone="no"?>
<!DOCTYPE svg PUBLIC "-//W3C//DTD SVG 20010904//EN"
 "http://www.w3.org/TR/2001/REC-SVG-20010904/DTD/svg10.dtd">
<svg version="1.0" xmlns="http://www.w3.org/2000/svg"
 width="824.000000pt" height="825.000000pt" viewBox="0 0 824.000000 825.000000"
 preserveAspectRatio="xMidYMid meet">
<metadata>
Created by potrace 1.16, written by Peter Selinger 2001-2019
</metadata>
<g transform="translate(0.000000,825.000000) scale(0.100000,-0.100000)"
fill="#000000" stroke="none">
<path d="M1426 5492 c-164 -455 -508 -1405 -763 -2112 -255 -707 -470 -1302
-478 -1323 l-15 -37 599 0 598 0 494 1486 494 1486 495 -1486 495 -1486 597 0
598 0 -11 28 c-10 27 -1087 3008 -1384 3835 l-158 437 -631 0 -631 0 -299
-828z"/>
<path d="M4880 4170 l0 -2151 983 4 c1061 5 1056 4 1278 61 308 78 562 247
714 476 140 211 208 439 208 705 0 209 -25 338 -95 499 -86 197 -255 366 -464
462 -71 33 -207 74 -245 74 -35 0 -28 19 18 48 106 66 231 218 293 358 80 176
105 321 97 558 -6 196 -28 312 -83 446 -109 267 -331 456 -639 544 -204 58
-213 59 -1177 63 l-888 5 0 -2152z m1447 1265 c243 -46 371 -218 341 -461 -15
-132 -86 -231 -201 -285 -94 -44 -188 -59 -358 -59 l-149 0 0 410 0 410 144 0
c86 0 176 -6 223 -15z m128 -1655 c260 -30 428 -126 485 -278 33 -86 37 -194
12 -278 -36 -117 -96 -191 -202 -244 -135 -68 -271 -90 -570 -90 l-220 0 0
457 0 456 203 -6 c111 -4 243 -12 292 -17z"/>
<path d="M2226 3344 c-209 -50 -373 -222 -422 -441 -57 -258 76 -536 308 -647
86 -40 154 -56 246 -56 244 0 473 182 536 426 20 77 21 231 1 304 -27 101 -74
180 -154 261 -143 144 -328 198 -515 153z"/>
</g>
</svg>
